<svg xmlns="http://www.w3.org/2000/svg" version="1.1" xmlns:xlink="http://www.w3.org/1999/xlink" xmlns:svgjs="http://svgjs.dev/svgjs" viewBox="0 0 1920 1080"><rect width="1920" height="1080" fill="#0857bf"></rect><g transform="matrix(0.5750000000000001,0.9959292143521044,-0.9959292143521044,0.5750000000000001,945.8017757501362,-726.5920457780203)"><path d="M0,-1080C8.88407017234676,-978.3407577861426,48.033361468759125,-676.8794211713381,53.30442103408056,-470.0445467168557C58.575480599402,-263.20967226237326,30.953604394774228,-53.0555393520728,31.626357391928636,161.00924672689433C32.29911038908304,375.07403280586146,57.747368272898264,581.4983383632264,57.340939017007,814.3441697569472C56.93450976111574,1047.190001150668,38.74460502608225,1333.808263382044,29.187781856581083,1558.0842350892194C19.630958687079918,1782.3602067963948,4.86463030943018,2059.680705848203,0,2160L 1920 2160 L 1920 -1080 Z" fill="url(&quot;#SvgjsLinearGradient1138&quot;)"></path><path d="M320,-1080C314.3707992217408,-1002.0067666601151,279.61571964467083,-759.1241518385509,286.22479533044486,-612.0405999606903C292.8338710162189,-464.9570480828297,363.2419359003794,-361.0691214630265,359.65445411464407,-197.49868873283657C356.0669723289087,-33.92825600264669,268.27669609032273,214.1277318722599,264.6999046160329,369.38199642044907C261.12311314174303,524.6362609686382,337.2216229796597,599.5582402703666,338.19370526890486,734.0268985562984C339.16578755815004,868.4955568422303,275.2845294511097,1017.6288035492811,270.5323983515039,1176.19394613604C265.7802672518981,1334.7590887227989,301.43631839652096,1521.4500784328586,309.6809186712703,1685.417754076852C317.9255189460197,1849.3854297208452,318.2801531118784,2080.9029590128084,320,2160L 1920 2160 L 1920 -1080 Z" fill="url(&quot;#SvgjsLinearGradient1139&quot;)"></path><path d="M640,-1080C641.7739954720352,-963.2784456353977,642.2836885679268,-601.4436513000708,650.6439728322109,-379.670673812386C659.004257096495,-157.89769632470117,690.6898789270266,41.70918962090707,690.1617055857046,250.63786492610896C689.6335322443825,459.56654023131085,646.7742921630222,669.5198800437101,647.474932784279,873.9013780188255C648.1755734055357,1078.282875993941,695.611371443958,1262.5770824466056,694.3655493132449,1476.9268527768013C693.1197271825317,1691.276623106997,649.0609248855408,2046.1544754628003,640,2160L 1920 2160 L 1920 -1080 Z" fill="url(&quot;#SvgjsLinearGradient1140&quot;)"></path><path d="M960,-1080C966.6080788390298,-1009.9941348615047,1006.9422196634903,-805.2393627434155,999.6484730341784,-659.9648091690278C992.3547264048666,-514.6902555946401,930.9336801534272,-351.02937109576493,916.2375202241287,-208.35267855367402C901.5413602948303,-65.67598601158312,907.3209352080526,73.90819785244274,911.4715134583877,196.09534608351754C915.6220917087228,318.2824943145923,937.7051818560635,392.8510952120257,941.1409897261397,524.7702108327749C944.5767975962158,656.689326453524,918.9561128507927,840.3428106816199,932.0863606788445,987.6100398080125C945.2166085068963,1134.877268934405,1010.5010192584903,1289.3300833639594,1019.9224766944504,1408.3735855911304C1029.3439341304106,1527.4170878183015,998.6021847436803,1576.5999841028936,988.6151052946052,1701.8710531710385C978.6280258455301,1827.1421222391834,964.7691842157675,2083.6451755285066,960,2160L 1920 2160 L 1920 -1080 Z" fill="url(&quot;#SvgjsLinearGradient1141&quot;)"></path><path d="M1280,-1080C1289.3767279677088,-980.5998177492723,1327.3529235818228,-696.4577605227246,1336.2603678062533,-483.5989064956342C1345.1678120306838,-270.7400524685438,1352.9691202534634,-34.277220607101384,1333.4446653465827,197.15312416254247C1313.920210439702,428.5834689321863,1219.9788108596874,694.9940837327507,1219.1136383649693,904.9831621222288C1218.2484658702513,1114.9722405117068,1318.1059034391028,1247.9181215197825,1328.2536303782745,1457.0875944994111C1338.4013573174461,1666.2570674790397,1288.0422717297124,2042.8479324165685,1280,2160L 1920 2160 L 1920 -1080 Z" fill="url(&quot;#SvgjsLinearGradient1142&quot;)"></path><path d="M1600,-1080C1605.942928016218,-998.6689577603455,1642.450182422269,-766.9800255260501,1635.6575680973083,-592.0137465620732C1628.8649537723475,-417.0474675980962,1563.3660046112723,-213.25421844586555,1559.2443140502346,-30.20232621613807C1555.122623489197,152.84956601358942,1609.32849952688,326.10571102980884,1610.9274247310818,506.29760681629176C1612.5263499352836,686.4895026027747,1574.3189805897564,872.062636255796,1568.8378652754452,1050.9490485027593C1563.356749961134,1229.8354607497226,1572.8470437244555,1394.7742550485316,1578.0407328452147,1579.6160802980717C1583.234421965974,1764.4579055476117,1596.3401221408692,2063.2693467163454,1600,2160L 1920 2160 L 1920 -1080 Z" fill="url(&quot;#SvgjsLinearGradient1143&quot;)"></path></g><defs><linearGradient x1="0.1" y1="0" x2="0" y2="1" id="SvgjsLinearGradient1138"><stop stop-color="#0857bf" offset="0"></stop><stop stop-color="#0875bf" offset="0"></stop></linearGradient><linearGradient x1="0.1" y1="0" x2="0" y2="1" id="SvgjsLinearGradient1139"><stop stop-color="#074ca7" offset="0"></stop><stop stop-color="#0767a7" offset="0.16666666666666666"></stop></linearGradient><linearGradient x1="0.1" y1="0" x2="0" y2="1" id="SvgjsLinearGradient1140"><stop stop-color="#06418f" offset="0"></stop><stop stop-color="#06588f" offset="0.3333333333333333"></stop></linearGradient><linearGradient x1="0.1" y1="0" x2="0" y2="1" id="SvgjsLinearGradient1141"><stop stop-color="#053677" offset="0"></stop><stop stop-color="#054977" offset="0.5"></stop></linearGradient><linearGradient x1="0.1" y1="0" x2="0" y2="1" id="SvgjsLinearGradient1142"><stop stop-color="#042b5f" offset="0"></stop><stop stop-color="#043a5f" offset="0.6666666666666666"></stop></linearGradient><linearGradient x1="0.1" y1="0" x2="0" y2="1" id="SvgjsLinearGradient1143"><stop stop-color="#032047" offset="0"></stop><stop stop-color="#032b47" offset="0.8333333333333334"></stop></linearGradient></defs></svg>