<svg width="75" height="20" viewBox="0 0 75 20" fill="none" xmlns="http://www.w3.org/2000/svg">
<g clip-path="url(#clip0)">
<path d="M3.82581 0.87207H4.66331V14.8275H3.82581V0.87207Z" fill="black"/>
<path d="M5.22171 0.87207H5.57061V14.8275H5.22171V0.87207Z" fill="black"/>
<path d="M6.6174 0.87207H6.9663V14.8275H6.6174V0.87207Z" fill="black"/>
<path d="M8.95551 0.87207H10.7V14.8275H8.95551V0.87207Z" fill="black"/>
<path d="M11.293 0.87207H11.642V14.8275H11.293V0.87207Z" fill="black"/>
<path d="M12.201 0.87207H13.492V14.8275H12.201V0.87207Z" fill="black"/>
<path d="M14.085 0.87207H15.341V14.8275H14.085V0.87207Z" fill="black"/>
<path d="M15.934 0.87207H16.283V14.8275H15.934V0.87207Z" fill="black"/>
<path d="M17.784 0.87207H18.622V14.8275H17.784V0.87207Z" fill="black"/>
<path d="M19.18 0.87207H19.529V14.8275H19.18V0.87207Z" fill="black"/>
<path d="M21.518 0.87207H22.32V14.8275H21.518V0.87207Z" fill="black"/>
<path d="M22.914 0.87207H23.262V14.8275H22.914V0.87207Z" fill="black"/>
<path d="M24.309 0.87207H25.112V14.8275H24.309V0.87207Z" fill="black"/>
<path d="M27.101 0.87207H27.45V14.8275H27.101V0.87207Z" fill="black"/>
<path d="M28.497 0.87207H28.846V14.8275H28.497V0.87207Z" fill="black"/>
<path d="M29.439 0.87207H29.788V14.8275H29.439V0.87207Z" fill="black"/>
<path d="M31.742 0.87207H32.58V14.8275H31.742V0.87207Z" fill="black"/>
<path d="M33.138 0.87207H33.487V14.8275H33.138V0.87207Z" fill="black"/>
<path d="M34.534 0.87207H34.883V14.8275H34.534V0.87207Z" fill="black"/>
<path d="M35.476 0.87207H35.825V14.8275H35.476V0.87207Z" fill="black"/>
<path d="M36.872 0.87207H38.617V14.8275H36.872V0.87207Z" fill="black"/>
<path d="M39.663 0.87207H40.012V14.8275H39.663V0.87207Z" fill="black"/>
<path d="M40.606 0.87207H41.408V14.8275H40.606V0.87207Z" fill="black"/>
<path d="M42.455 0.87207H42.804V14.8275H42.455V0.87207Z" fill="black"/>
<path d="M44.793 0.87207H45.142V14.8275H44.793V0.87207Z" fill="black"/>
<path d="M47.096 0.87207H47.445V14.8275H47.096V0.87207Z" fill="black"/>
<path d="M48.492 0.87207H49.329V14.8275H48.492V0.87207Z" fill="black"/>
<path d="M49.888 0.87207H50.237V14.8275H49.888V0.87207Z" fill="black"/>
<path d="M52.226 0.87207H53.028V14.8275H52.226V0.87207Z" fill="black"/>
<path d="M53.622 0.87207H53.97V14.8275H53.622V0.87207Z" fill="black"/>
<path d="M55.017 0.87207H55.366V14.8275H55.017V0.87207Z" fill="black"/>
<path d="M56.413 0.87207H56.762V14.8275H56.413V0.87207Z" fill="black"/>
<path d="M57.355 0.87207H58.158V14.8275H57.355V0.87207Z" fill="black"/>
<path d="M60.147 0.87207H60.496V14.8275H60.147V0.87207Z" fill="black"/>
<path d="M61.054 0.87207H62.799V14.8275H61.054V0.87207Z" fill="black"/>
<path d="M63.392 0.87207H64.683V14.8275H63.392V0.87207Z" fill="black"/>
<path d="M65.242 0.87207H66.079V14.8275H65.242V0.87207Z" fill="black"/>
<path d="M67.58 0.87207H68.871V14.8275H67.58V0.87207Z" fill="black"/>
<path d="M69.429 0.87207H69.778V14.8275H69.429V0.87207Z" fill="black"/>
<path d="M70.371 0.87207H71.174V14.8275H70.371V0.87207Z" fill="black"/>
</g>
<defs>
<clipPath id="clip0">
<rect width="75" height="20" fill="white"/>
</clipPath>
</defs>
</svg>
